<svg id="Layer_1" viewBox="0 0 24 24" xmlns="http://www.w3.org/2000/svg" data-name="Layer 1"><path d="m9.119 10.499c-.257-.063-.507-.16-.723-.333-.285-.233-1.375-.801-2.628-2.741-1.095-1.695-1.604-2.821-1.767-3.449-.141-.533 3.242-2.894 4.335-2.975 0 0-.336 1.779-.336 3h3c0-1.221-.328-3-.328-3 1.094.081 4.459 2.448 4.319 2.975-.164.634-.672 1.755-1.768 3.449-1.257 1.949-2.221 2.514-2.508 2.748-.211.17-.458.266-.715.327 0 0 1-2.668 1-4.5h-3c0 1.832 1.119 4.498 1.119 4.498zm13.528 3.28c-3.341 5.629-8.216 9.246-14.648 9.22-3.064 0-5.59-.498-5.696-.52-.379-.075-.68-.363-.774-.738-.021-.086-.53-2.143-.53-4.242s.508-4.156.53-4.242c.094-.377.398-.665.78-.739.109-.021 2.205-.519 5.19-.519 2.5 0 4.271.532 4.279.532.719.216 1.221.893 1.221 1.644 0 .788-.457 1.458-1.217 1.759-.908.386-2.297.917-3.879 1.069-.55.053-.953.541-.9 1.091.05.518.485.904.995.904 1.975-.103 3.537-.786 4.543-1.215 1.058-.418 1.842-1.255 2.214-2.275 1.395-1.134 2.564-2.557 3.595-4.288.707-1.185 2.244-1.574 3.427-.869.574.341.98.886 1.144 1.533.165.647.067 1.32-.274 1.893z"/></svg>