<svg id="Layer_1" viewBox="0 0 24 24" xmlns="http://www.w3.org/2000/svg" data-name="Layer 1"><path d="m21.797 2.707c-.109-.322-.375-.566-.705-.648-.173-.043-4.287-1.058-9.092-1.058s-8.921 1.014-9.094 1.058c-.329.083-.594.327-.703.648-.049.145-1.203 3.597-1.203 8.233 0 4.795 1.162 8.108 1.212 8.247.114.322.386.563.719.639.133.03 3.125.707 5.959.926.91.991 2.431 2.253 3.192 2.245.61-.048 2.169-1.277 3.029-2.245 2.833-.219 5.825-.896 5.958-.926.333-.076.604-.317.719-.639.05-.139 1.212-3.452 1.212-8.247 0-4.636-1.154-8.088-1.203-8.233zm-6.797 9.293h-2v2c0 .552-.447 1-1 1s-1-.448-1-1v-2h-2c-.553 0-1-.448-1-1s.447-1 1-1h2v-2c0-.552.447-1 1-1s1 .448 1 1v2h2c.553 0 1 .448 1 1s-.447 1-1 1z"/></svg>