<svg id="Layer_1" viewBox="0 0 24 24" xmlns="http://www.w3.org/2000/svg" data-name="Layer 1"><path d="m.599 3.001v1.999c0 1.657 1.343 3 3 3h2.333s1.995 1.327 1.995 1.327c.186.119.387.173.583.173.566 0 1.089-.45 1.089-1.088v-5.409c0-1.65-1.35-3-3-3.001h-3c-1.657-.002-3 1.342-3 2.999zm21.297 10.884-.451-.26c.102-.544.153-1.088.153-1.625s-.051-1.082-.153-1.625l.451-.26c1.436-.826 1.931-2.66 1.105-4.096-.826-1.437-2.659-1.932-4.096-1.106l-.45.259c-.841-.721-1.81-1.28-2.857-1.649v-.522c0-1.657-1.343-3-3-3-.625 0-1.205.192-1.685.519.435.751.685 1.596.685 2.485v4.206c.307-.134.644-.211 1-.211 1.381 0 2.5 1.119 2.5 2.5s-1.119 2.5-2.5 2.5c-.909 0-1.697-.49-2.135-1.216-.534.441-1.209.716-1.954.716-.587 0-1.162-.169-1.661-.488l-1.521-1.012h-1.466c-.209.641-.255 1.344-.263 2 0 .537.051 1.082.153 1.625l-.451.259c-1.436.826-1.931 2.66-1.105 4.096.826 1.437 2.66 1.932 4.096 1.106l.45-.259c.841.721 1.81 1.28 2.857 1.649v.522c0 1.657 1.343 3 3 3s3-1.343 3-3v-.522c1.047-.37 2.016-.929 2.857-1.649l.45.259c1.436.826 3.27.331 4.096-1.106.826-1.437.331-3.27-1.105-4.096zm-9.298 3.115c-1.441 0-2.72-.629-3.627-1.609.617-1.402 1.995-2.391 3.627-2.391s3.01.989 3.628 2.392c-.907.98-2.187 1.608-3.628 1.608z"/></svg>