<svg id="Layer_1" viewBox="0 0 24 24" xmlns="http://www.w3.org/2000/svg" data-name="Layer 1"><path d="m11.597 1.453c-1.527-1.24-3.528-1.719-5.488-1.307-2.483.518-4.483 2.541-4.978 5.033-.627 3.159 1.051 6.221 4.005 7.372l.325.324-.814.814c-.585.585-.585 1.536 0 2.121l.814.814-1.021 1.021c-.283.283-.439.66-.439 1.061v.916c0 1.069.416 2.074 1.172 2.829l.997.997c.367.366.849.55 1.332.55s.965-.184 1.332-.551l.996-.996c.755-.755 1.172-1.76 1.172-2.829v-7.65c1.865-1.188 3-3.233 3-5.473 0-1.966-.876-3.806-2.403-5.047zm-4.097 4.547c-.828 0-1.5-.672-1.5-1.5s.672-1.5 1.5-1.5 1.5.672 1.5 1.5-.672 1.5-1.5 1.5zm8.5 1c0-.553.448-1 1-1h2c.551 0 1-.448 1-1v-1.277c-.595-.346-1-.984-1-1.723 0-1.105.895-2 2-2s2 .895 2 2c0 .738-.405 1.376-1 1.723v1.277c0 1.654-1.346 3-3 3h-2c-.552 0-1-.447-1-1zm7 15c0 1.105-.895 2-2 2s-2-.895-2-2c0-.738.405-1.376 1-1.723v-1.277c0-.552-.449-1-1-1h-5c-.552 0-1-.447-1-1s.448-1 1-1h5c1.654 0 3 1.346 3 3v1.277c.595.346 1 .984 1 1.723zm0-10c0 1.105-.895 2-2 2-.738 0-1.376-.405-1.723-1h-4.277c-.552 0-1-.447-1-1s.448-1 1-1h4.277c.346-.595.984-1 1.723-1 1.105 0 2 .895 2 2z"/></svg>