<?xml version="1.0" encoding="UTF-8"?>
<svg xmlns="http://www.w3.org/2000/svg" id="Layer_1" data-name="Layer 1" viewBox="0 0 24 24">
  <path d="M18.197,9.426l.454-.874c.373-.72,.441-1.539,.191-2.31s-.787-1.394-1.474-1.736L11.209,1.089C7.263-.962,4.298,.34,2.883,1.298c-.597,.403-.927,1.072-.883,1.789,.043,.708,.446,1.324,1.076,1.65l11.097,5.978c1.434,.741,3.264,.18,4.024-1.289Zm-12.036-.755L.31,19.662c-.723,1.455-.139,3.247,1.303,3.997,.434,.226,.905,.339,1.379,.339,.313,0,.628-.049,.935-.149,.771-.252,1.395-.791,1.742-1.492l5.768-10.844-5.276-2.842Zm17.618,9.256l-1.004-2.677c-.504-1.343-1.807-2.246-3.241-2.247l-3.189-.002h-.005c-.926,0-1.828,.379-2.474,1.04l-1.876,1.915s0,0,0,0c-.638,.651-.989,1.513-.989,2.424v.801c0,.911,.352,1.772,.99,2.425l1.326,1.353c.647,.662,1.55,1.041,2.475,1.041h3.985c1.269,0,2.434-.691,3.042-1.805l.759-1.391c.483-.886,.557-1.935,.202-2.878Zm-6.794,4.064h-.239c-.806,0-1.579-.325-2.143-.901l-.867-.885c-.386-.394-.38-1.027,.014-1.414h0c.395-.387,1.028-.381,1.414,.014l.867,.885c.188,.192,.446,.3,.714,.3h.238c.552,0,1,.448,1,1s-.448,1-1,1Z"/>
</svg>
