<svg id="Layer_1" viewBox="0 0 24 24" xmlns="http://www.w3.org/2000/svg" data-name="Layer 1"><path d="m22.842 11.46c-.034-.054-.826-1.284-2.036-2.823-.238-2.251-.612-3.976-.629-4.051-.083-.381-.381-.68-.763-.763-.075-.016-1.801-.391-4.052-.629-1.539-1.21-2.769-2.001-2.822-2.036-.33-.211-.75-.211-1.08 0-.054.035-1.283.826-2.822 2.036-2.251.238-3.977.613-4.052.629-.382.083-.68.382-.763.763-.017.076-.391 1.8-.629 4.051-1.21 1.539-2.002 2.769-2.036 2.823-.211.329-.211.75 0 1.079.034.054.826 1.284 2.036 2.823.238 2.251.612 3.976.629 4.051.083.381.381.68.763.763.075.016 1.801.391 4.052.629 1.539 1.21 2.769 2.001 2.822 2.036.33.211.75.211 1.08 0 .054-.035 1.283-.826 2.822-2.036 2.251-.238 3.977-.613 4.052-.629.382-.083.68-.382.763-.763.017-.076.391-1.8.629-4.051 1.21-1.539 2.002-2.769 2.036-2.823.211-.329.211-.75 0-1.079zm-4.508-2.408c-2.231 3.371-4.436 5.328-6.898 6.805-.325.194-.73.19-1.05-.013-1.768-1.121-3.096-2.321-4.181-3.776-.33-.443-.238-1.069.204-1.399.443-.331 1.069-.24 1.399.204.826 1.108 1.827 2.052 3.122 2.937 2.005-1.347 3.863-3.032 5.735-5.861.305-.461.925-.588 1.386-.282.461.305.587.925.282 1.386z"/></svg>