<?xml version="1.0" encoding="UTF-8"?>
<svg id="Layer_1" data-name="Layer 1" xmlns="http://www.w3.org/2000/svg" viewBox="0 0 1503.64 1468.25">
  <g>
    <path d="M1499.43,993.15c-1.08,1.19-5.24,2.27-7.03,2.25h-580.27c-6.37.34-7.83-4.9-8.3-10.27-1.12-12.8-1.18-38.11,0-50.87.66-7.08,2.22-8.63,9.28-9.28,80.95-.8,162.45,1.16,243.2-1.96,70.7-2.73,202.69-8.81,216.25-99.23,2.61-213.39.32-427.13,1.15-640.65-7.28-108.01-130.34-110.94-212.8-111.48l-95.59-64.09c-3.22-4.87-.17-7.67,5.02-7.58h423.98c5.34.02,9.52,2.54,9.29,8.3.03,325.21-2.29,649.69-1.96,974.87-.16,2.35-.81,8.4-2.24,9.97Z"/>
    <g>
      <path d="M728.31,583.4c-2.26,2.29-.22,6.9-.19,9.97.79,76.52-1.06,153.11,0,229.62.35,25.08-.86,60.66,19.95,78.6,22.44,19.34,83.79,18.08,113.31,20.5,2.82.23,11.9.97,13.59,2.04,1.97,1.25,3.27,4.94,3.54,7.21,1.47,12.31,1.08,41.06.01,53.78-.26,3.12-.53,6.72-3.89,7.84l-472.35.47c-5.49-.04-6.86-2.28-7.33-7.33-1.16-12.61-1.16-38.26,0-50.87.41-4.5,1.29-8.41,6.44-9.19,33.45-5.02,87.64-2.22,109.25-33.35,15.12-21.79,13.73-51.18,16.25-76.54V162.63c-2.44-21.85-.41-55.75-17.58-72.27-20.83-20.04-71.64-15.45-99.09-19.09-6.38-.85-7.91-2.99-8.42-9.16-.87-10.45-1.52-47.35.52-56.23.98-4.26,2.89-4.56,6.8-4.89,25.45-2.18,52.71.69,78.14,1.06,77.76,1.12,155.69,2.1,233.44,2.93,144.06,1.55,333.67-16.08,429.13,115.88,65.82,90.99,63.37,232.15,7.18,327.19-64.73,109.49-200.28,165.28-324.92,157.57-31.74-1.97-68.05-17.95-99.9-23.21-1.25-.15-3.01.11-3.89,1ZM785.49,76.52c-15.18,1.01-31.46,3.03-43.23,13.42-15.95,14.08-14.55,32.65-16.19,52.18l.28,350.46c.97,6.86,9.47,8.21,15.19,10.21,58.08,20.22,138.01,16.6,191.33-15.18,74.63-44.48,96.61-134.63,92.14-216.53-7.61-139.36-105.73-203.48-239.51-194.56Z"/>
      <path d="M163.15,121.76c-27.14,24.96-33.39,55.77-34.84,91.66v562.68c1.14,28.74,3.12,56.33,17.81,81.82,28.42,49.28,98.18,57.56,149.75,62.2,20.12,1.81,42.86,1,62.42,4,4.56.7,6.88,2.43,7.43,7.22,1.38,11.94,1.37,44.76,0,56.69-.49,4.25-2.39,6.32-6.6,7.07l-346.54.27c-3.91-.09-8.09-1.36-9.03-5.62-.63-59.52.1-119.05-.17-178.57C2.23,558.05,2.97,304.51.36,51.37.27,42.92-.93,10.09,1.63,4.69,2.97,1.86,5.69.93,8.66.98l353.57.1c3.49.55,6.77,3.82,7.33,7.33,1.27,8.02,1.25,48.57-.18,56.36-.25,1.34-.74,3.18-1.73,4.13-3.96,3.79-27.87,3.75-34.65,4.41-54.38,5.35-128.07,10.04-169.83,48.45Z"/>
    </g>
  </g>
  <path d="M1275.72,1138.65c-3.58,4.46-16.44.49-18.81,8.03-1.29,4.11-.94,28.3-.48,33.79.13,1.51.17,4.02,1.25,5.1,2.63,2.63,17.43.5,21.78,1.25,13.09-2.54,28.91-.04,41.89-2.06,3.84-.6,4.93-2.72,5.08-6.43.25-5.97.15-26.73-1.05-31.66-1.64-6.78-8.89-4.21-14.45-6.06-7.78-2.59-8.19-13.42.41-15.67s49.43-1.57,59.92-.71c6.22.52,10.67,1.87,10.18,9.26-.78,11.69-17.65,4.81-20.04,12.2l-.37,111.83c1.65,10.39,20.04.84,20.29,14.69.12,6.41-3.51,7.86-9.08,8.36-14.32,1.3-43.41,1.32-57.7,0-5.54-.51-9.33-1.93-9.33-8.34,0-12.59,16.07-6.11,19.44-11.91,3.93-6.78-.53-38.08,1.14-47.65-.72-3.77-5.14-4.17-8.24-4.46-13.41-1.23-39.33-1.13-52.82,0-5.97.5-7.74,1.15-8.31,7.32-1.21,13.19.81,28.43.25,41.84,4.46,11.5,20.98.26,20.37,15.86-.2,5.18-2.23,6.77-7.37,7.33-9.19,1-55.69,1.39-63.04-.49-4.41-1.13-5.68-4.1-5.29-8.48,1.14-12.65,19.11-3.76,20.88-15.04-2.25-34.24,3.18-72.71.1-106.45-1.33-14.53-21.02-4.09-21.47-16.65-.23-6.49,4.63-8.62,10.2-9.18,13.05-1.31,44.66-1.46,57.5.1,7.78.95,12.11,8.08,7.15,14.27Z"/>
  <path d="M255.04,1138.64c-3.79,4.51-16.44.5-18.81,8.04-1.31,4.16-.99,31.07-.48,36.72.43,4.73,1.32,6.71,6.38,7.3,11.2,1.3,46.65,1.45,57.55-.11,3.64-.52,5.76-1.43,6.38-5.34,1.02-6.5.78-28.17-.19-34.84-2.39-16.42-21.22-2.98-21.24-17.83-.01-7.01,5.37-7.85,11.21-8.34,14.11-1.19,40.7-1.24,54.77,0,6.21.55,10.79,2.14,10.27,9.3-.83,11.56-16.99,5.23-19.85,11.48-1.63,37.33-.34,75.05-.66,112.52,1.62,10.23,20.33,1.13,20.49,14.69.07,6.31-3.84,7.86-9.28,8.36-14.4,1.32-42.25,1.22-56.73,0-5.24-.44-10.38-1.97-10.18-8.25.4-13,15.48-5.5,19.72-12.58,4.76-7.97.04-36.59,1.72-47.07-.72-3.77-5.14-4.17-8.24-4.46-13.65-1.25-40.06-1.15-53.8,0-5.97.5-7.74,1.15-8.31,7.32-.67,7.33-1.13,35.65.25,41.84,2.38,10.63,21.65.3,20.3,16.83-.45,5.5-4.26,5.96-9.24,6.38-14.77,1.22-43.04,1.35-57.71,0-6.15-.56-9.16-3.83-8.22-10.23,1.66-11.3,18.47-2.5,20.42-13.8,1.33-7.7.02-14.31.01-21.4-.04-25.67,1.37-51.74,1.08-77.24-.22-19.01-4.46-13.23-16.7-17.51-7.88-2.75-7.02-14.97,3.46-16.16,12.54-1.42,46-1.4,58.49.11,7.79.95,12.5,7.88,7.15,14.26Z"/>
  <path d="M678,1126.48c.89.83,2.22,4.71,2.24,6.07.18,12.4-15.82,6.58-19.62,11.69-2.77,3.72-2.33,29.19-1.95,35.25.26,4.04.42,8.62,5.44,5.36,14.54-13.94,31.28-26.16,44.23-41.55-1.55-3.34-8.59-2.45-9.91-5.58-3.31-7.82.82-12.77,8.59-13.49,10.69-.99,31.32-.91,42.07,0,6.31.54,11.69,1.56,11.16,9.19-.7,10.03-12.05,7.01-18.79,8.64-12.67,3.07-40.5,36.41-53.46,44.21-11.33,7.62.9,15.72,7.31,22.02,10.3,10.12,49.1,49.11,59.13,53.19,7.9,3.21,20.41,0,19.58,11.72-.41,5.76-4.23,6.91-9.3,7.38-15.21,1.42-46.38,1.39-61.62,0-6.49-.59-9.54-4.44-8.05-11.07,1.63-7.28,12.19-3.75,9.07-10.46l-39.99-40.11c-2-1.11-3.56-2.12-4.57.42-1.47,3.71-1.49,32.19-.62,37,2.08,11.59,19.02,2.55,18.39,16.82-.26,5.75-4.45,6.93-9.3,7.38-13.75,1.28-42,1.28-55.76,0-6.72-.62-9.64-4.18-8.05-11.08,2.35-10.17,18.43-2.02,20.24-12.96-2.25-34.24,3.18-72.71.1-106.45-1.33-14.62-19.53-3.57-20.56-15.56-.65-7.61,1.95-9.63,9.24-10.31,14.28-1.34,42.34-1.21,56.73,0,2.02.17,6.64.97,8.01,2.25Z"/>
  <path d="M14.33,1278.34c-4.26-3.96-1.91-12.06,3.62-13.95,7.6-2.59,14.19,1.41,15.55-9.84-1.6-33.07,2.52-68.75.16-101.51-.22-3.11-.37-7.73-2.97-9.72-5.07-3.87-19.18.74-18.63-10.73.34-7,5.28-7.87,11.27-8.36,20.94-1.69,58.19-1.66,79.13.05,32.47,2.65,49.5,26.86,40.8,58.35-6.73,24.37-32.64,33.81-55.56,36.25-4.5.48-17.58-1.37-19.71,2.76s-1.59,32.41.25,37.46c3.17,8.7,22.37-1.04,22.94,13.22.28,6.94-4.62,7.84-10.16,8.26-15.6,1.2-43.16,1.3-58.68,0-2.02-.17-6.64-.97-8.01-2.25ZM68.03,1201.19c2.51,2.91,16.89.6,20.81-.68,16.89-5.55,22.61-20.96,20.94-37.65-1.37-13.64-7.92-19.01-21-21.01-3.22-.49-12.65-1.33-15.64-1-5.51.62-5.96,3.31-6.37,8.28-1.01,12.26-.95,33.67,0,45.98.11,1.42.49,5.19,1.25,6.07Z"/>
  <path d="M572.51,1278.34c-1.27,1.35-5.09,2.08-7.02,2.25-13.6,1.23-41.2,1.24-54.78-.01-5.15-.48-8.8-1.61-9.2-7.48-.97-14.1,16.91-5.03,16.55-14.42-.07-1.87-8.45-18.68-9.89-20.49-1.93-2.42-3.28-2.36-6.17-2.62-18.45-1.7-39.7,1.19-58.45.25-3.51,1.03-13.22,20.21-13.38,23.84-.22,4.91,5.62,3.83,8.81,4.77,8.51,2.51,7.06,15.03-2.44,16.14-8.52.99-27.43.75-36.2.02-7.6-.63-10.13-2.24-9.27-10.31.93-8.71,8.87-5.06,14.87-8.59,1.85-1.09,3.73-4.02,4.88-5.86,12.31-19.65,23.52-49.63,34.13-71.35,6.52-13.35,13.01-26.71,19.53-40.05,5.04-10.3,10.11-27.99,24.64-20.04,23.61,42.04,42.29,87.06,64.29,130.08,6.51,10.26,7.45,6.39,16.15,10.22,4.74,2.09,5.89,10.5,2.94,13.65ZM453.6,1215.11c4.9.04,39.18.13,40.61-1.89,1.17-1.65.2-3.95-.34-5.66-1.73-5.42-12.79-27.71-15.98-32.84-2.31-3.71-3.83-4.86-6.53-.96-3.14,4.52-7.3,14.14-9.79,19.51-1.5,3.23-9.92,19.85-7.96,21.84Z"/>
  <path d="M980.78,1278.34c-1.27,1.35-5.09,2.08-7.02,2.25-13.63,1.23-41.17,1.24-54.78-.01-4.43-.41-8.46-1.29-9.2-6.46-2.13-14.82,16.59-6.46,16.65-14.55.01-2.11-7.77-19.01-9.4-20.98-2.12-2.56-3.61-2.73-6.75-3.02-18.47-1.68-39.69,1.18-58.45.25-3.6,1.05-10.58,14.59-11.9,18.37-5.95,17.03,12.94,2.55,12.25,19.05-.24,5.77-2.77,6.75-8.36,7.31-8.89.89-27.25.86-36.18.03-7.52-.69-9.21-2.53-8.28-10.32,1.09-9.11,8.64-4.68,14.39-8.06,3.18-1.87,12.69-21.2,15.1-25.93,17.64-34.67,32.26-71.32,50.73-105.54,4.93-9.14,12.42-11.64,20.24-3.88l62.47,128.97c2.45,8.13,16.18,6.99,18.81,11.47,1.41,2.38,1.53,9.08-.32,11.05ZM882.01,1171.21c-3.57,4.42-22.76,41.7-21.66,43.89,1.01,2.02,4.79,2.3,6.89,2.39,4.3.19,33.87-.1,35.64-.92,2.91-1.35,1.42-4.07.48-6.33-3.56-8.61-12.87-28.64-17.66-36.06-.67-1.03-2.34-3.19-3.7-2.97Z"/>
  <path d="M1146.35,1159.19c-3.28-3.56.83-14.47-6.81-16.15-3.56-.78-26.39-.89-30.07-.21-2.37.44-2.96,2.27-3.35,4.46l.04,106.29c-.77,16.71,23.75,3.91,24.37,17.7.31,6.85-3.28,8.75-9.3,9.3-15.69,1.45-47.86,1.44-63.56,0-6.89-.63-10.73-3.55-9.03-11.06,2.61-11.59,23.22,1.32,23.96-16.1,1.15-26.98-1.02-57.17-.77-84.76.04-4.78,3.01-22.93-1.9-25.35-1.93-.95-29.32-.88-32.32-.05-4.69,1.29-3.1,10.3-4.02,13.54-1.75,6.17-17.81,5.92-20.39,1.98-2.35-3.6-2.42-20.46-1.88-25.22.84-7.47,4.32-8.73,11.2-9.31,43.35,2.41,89.94-3.09,132.91,0,5.04.36,10.15.47,11.13,6.45.6,3.67.5,23.79-.68,26.55-2.31,5.4-16.26,5.49-19.52,1.96Z"/>
  <path d="M1490.59,1266.18c3.6,4.46,1.82,13.41-5.17,14.25-13.2,1.59-48.2,1.61-61.46.14-10.63-1.18-9.83-13.99-3.44-16.19,8.36-2.87,15.51,1.93,16.69-10.66,3.11-33.37-2.36-71.58-.1-105.47-1.84-11.77-21.67-1.88-21.47-15.71.09-6.41,4.81-7.87,10.25-8.32,14.42-1.2,42.42-1.34,56.73,0,7.07.66,10.11,2.75,9.26,10.31-1.27,11.32-15.41,2.17-19.79,11.47-1.68,36.67-.34,73.74-.69,110.55,1.55,9.87,15.43,4.97,19.18,9.62Z"/>
  <path d="M517.56,1386.61c31.74-3.22,55.53,18.75,48.07,51.39-5.2,22.78-33.24,33.98-54.4,28.61-46.24-11.75-44.63-74.83,6.32-80ZM517.85,1398.03c-28.76,3.52-29.59,49.58-3.89,56.08,18.38,4.65,34-3.93,35.35-23.66,1.43-20.9-9.49-35.12-31.45-32.43Z"/>
  <path d="M689.22,1390.16c.85-.88,5.6-2.03,7.1-2.18,12.21-1.22,36.71-.41,48.14,3.64,31.28,11.07,29.9,56.87-.78,69.12-12.13,4.84-37.42,6.19-50.33,4.46-8.88-1.19-5.32-16.14-5.28-21.98.1-12.72.05-25.46,0-38.18-.02-3.81-2.19-11.43,1.16-14.88ZM709.26,1398.96c-4,.68-5.17,2.15-5.63,6.1-1.13,9.65-.92,32.17-.03,42.06.23,2.6.32,5.73,3.46,6.3,3.75.68,16.34.41,20.5-.01,18.08-1.83,26.4-20.71,21.3-36.91-3.39-10.79-12.67-15.38-23.26-16.79-2.99-.4-13.75-1.2-16.35-.76Z"/>
  <path d="M914.61,1438.77c2.41-1.77.06-38.06,1.05-44.38,1.24-7.94,12.36-8.59,13.55-.97-1.32,20.73,1.97,44.02.11,64.44-1.01,11.04-12.06,8.9-18.26,3.03-10.81-10.26-22.17-29.49-32.6-41.14-1.63-1.82-3.2-3.21-5.36-4.39-1.31.05-2.29,6.86-2.42,8.29-.89,10.1.97,21.28.59,31.07-.26,6.55-2.08,11.89-9.85,10.42-4.21-.8-5.12-7.48-5.44-11.19-1.22-14.24-1.39-45.49.46-59.18,1.11-8.2,10.83-7.94,16.67-3.87,4.35,3.03,14.81,16.95,19.01,22.01,2.19,2.64,20.14,27.57,22.48,25.85Z"/>
  <path d="M427,1418.03c3.32-3.32-.89-21,2.29-26.52,2.93-5.08,11.85-4.18,14.34,1.08l-.23,68.71c-1.42,4.37-8.43,4.86-12.05,3.14-7.08-3.37.35-27.78-5.17-32.99-2.4-2.26-31-2.05-34.68-.55-1.36.55-2.69,1.13-3.16,2.7-1.94,6.43,2.29,25.69-2.37,30.35-3.05,3.05-12.38,2.2-13.39-4.22-2.6-16.52-2.03-48.22-.5-65.04.78-8.54,14.78-9.84,16.07,1.61.67,5.92-2.44,19.84,3.18,22.21,3.34,1.41,25.66,1.19,30.55.78,1.51-.13,4.02-.17,5.1-1.25Z"/>
  <path d="M1038.42,1390.19c.45.41,1.89,3.69,2,4.39,1.86,11.95-16.49,3.76-22.77,3.19-22.41-2.04-37.63,6.68-36.65,30.8.88,21.62,17.97,29.14,37.66,26.83,13.25-1.55-.44-25.42,13.64-25.45,11.32-.02,9.96,13.61,9.34,22.06-.48,6.6-.72,9.68-7.32,12.21-23.25,8.92-60.98,3.17-68.85-24.03-9.23-31.91,11.85-52.5,42.44-54.14,5.06-.27,27.58,1.45,30.52,4.14Z"/>
  <path d="M1100.97,1386.33c6.88-.63,27.27-.35,25.6,9.91-1.18,7.27-13.14,2.06-17.2,1.62-6.33-.68-20.33-.26-18.97,9.12s36.44,14.93,41.1,31.26c6.24,21.85-20.42,31.48-37.64,29.83-5.95-.57-19.18-3.31-19.85-10.49-.98-10.55,15.52-2.85,20.93-2.32,8.17.8,23.29-.04,20.69-11.87-2.24-10.2-36.32-15.2-40.37-30.96-4.33-16.85,11.63-24.81,25.71-26.1Z"/>
  <path d="M615.52,1390.16c3.19,3.29,1.17,12.13,1.16,15.86-.02,7.17-1.02,42.94,1.52,46.42,2.22,3.05,7.02.94,9.72.95,6.01.03,25.83-1.37,28.91,3.4,3.33,5.15-.32,7.98-5.39,8.41-10.04.84-34.49,1.27-44.04,0-4.56-.6-5.96-4.15-6.35-8.31-1.85-19.99,1.3-43.02.26-63.32.82-5.95,10.91-6.82,14.22-3.41Z"/>
  <path d="M814.74,1463.92c-2.02,1.89-8.5,1.66-10.88.15-4.41-2.79-2.47-10.98-2.5-15-.11-14.36-.03-28.71,0-43.06.02-6.93-3.51-17.52,7.36-17.97,3.54-.14,8.26,2.42,8.27,6.24-1.75,20.19,2.16,43.8-.02,63.56-.17,1.51-1.23,5.14-2.23,6.07Z"/>
</svg>