<?xml version="1.0" encoding="UTF-8"?>
<svg id="Layer_1" data-name="Layer 1" xmlns="http://www.w3.org/2000/svg" viewBox="0 0 1460.5 1443.6">
  <defs>
    <style>
      .cls-1 {
        fill: #e7e7e7;
      }
    </style>
  </defs>
  <g>
    <path class="cls-1" d="M1459.2,2.6c1.3,1.4,1.2,4.2,1.3,6,.1,320.3-2.2,639.7-1.9,959.9-.5,5.3-1.9,10.4-8.2,10.1h-564.5c-5.6,0-7.5-3.1-8.1-8.2-1.4-12.4-1.2-41.2,0-53.8s.7-5.9,4.6-7c100.9-4.9,203.6,4.7,304.1-6.9,58.6-6.8,136.2-24.5,146.3-93.7,2.5-208.8.3-417.8,1.1-626.7-5.4-94.1-97.7-108.5-174.2-110.9-12.2-.4-25.5,3.2-36-2.4-11.9-6.5-26.9-17.8-38.6-25.7-16.6-11.2-32.5-23.4-49.3-34.2-3.3-2-4-8.9.9-8.7h415.7c1.8,0,5.8,1,6.9,2.2Z"/>
    <g>
      <path class="cls-1" d="M1080,498.2c-48.1,48.1-120.7,82-187.6,93.2-24.1,4-64.7,6.3-89,4.1-27.9-2.5-60.8-18.2-88.6-21.8s-6.4-1-7.5.6l-.5,253c3.5,46.3,12.2,65.2,59.3,73.1,25.6,4.3,53.6,2.1,78.4,6.1,4.9.8,7.6,1.5,8.3,7.1,1.4,12.4-.2,29.3,0,42.3,0,5.6,2.3,10.8-.2,17s-23.7,3.6-29.9,3.6c-139.1-1.5-280.5-1.6-419.5,1.1-6.7.1-18.9,1.4-19.8-7.2-1.3-12.8-1.1-40,0-52.9s2.5-7.3,8.3-8c33.8-4.2,86.6-2.4,106.1-35.9,11.7-20,11.2-45.9,13.3-68.3V153.5c-2.3-20.1-1.7-48.3-16.8-63.8-20.4-20.9-71-14.2-97.9-19.2s-6.3-2.9-6.3-6.1c1.3-18-1.6-38,0-55.8S403.3.2,411.9.4c116.8,2.7,234.4,3.5,351.2,4.9,101.7,1.2,212.6-2,299.3,59.6,137.2,97.5,131.1,319.8,17.6,433.3ZM941.8,131.3c-29.5-30.1-74-48.7-115.4-54-23.1-3-77.5-5-97.3,6.1-25.9,14.5-22.8,40.9-23,66.2-.8,112.5.2,225.1.4,337.5.4,1.2,1.1,2,2.1,2.7,2.8,1.9,17.3,6.1,21.5,7.3,100.5,28.8,211.1-5,248.6-108.4,29-79.9,25.6-193.7-36.8-257.4Z"/>
      <path class="cls-1" d="M357.3,68.3c-1.1,1.2-7.1,2.8-9,3-85,10.3-209,4.3-222,116.9-2.5,194.7-.3,389.7-1.1,584.5,1.6,23.2,4.1,45.8,14.9,66.7,35.4,68.2,140.5,61.2,205.4,68.1s9.4,1.5,10.1,8.1l-.5,58.1c-1.3,3.2-4.2,5-7.7,4.8H12.5c-5.5.2-10.3-2-10.1-8.2C4.6,653.9-1.9,337.5.6,21,.6,14.3-2.8,1.2,7.7,1.3c108.5-.9,217,1.4,325.5,0s24.4-5.3,26.3,8.2c1.3,9.5-1.1,26.5-.9,37.4,0,5.4,3,16.9-1.2,21.3Z"/>
    </g>
  </g>
  <path class="cls-1" d="M1269.7,1120.3c-4.8-4.8-2.7-13.9,5.1-15,11.9-1.7,47.1-1.4,59.4,0s9.6,13,2.6,16.1c-10,4.3-14.5-3.4-15.6,13.2-1.8,26.7-1.9,68.4,0,95.1,1,14.1,3,10.1,13.7,12.2s10.4,16.1-.7,17.1-44.9,1.4-59.6,0-6.9-1.9-7.2-7.3c-.8-15.1,16-6.1,19-13.6s1.1-5.5,1.2-7.4c.4-4.7.5-37.8-.5-39.9s-2.3-1.8-3.8-2c-17.8-2.3-40.3,1.8-58.6,0-3.3-.1-4,2.6-4.3,5.3-.9,7.7-1,33.8.2,41.1,2.1,12,20,.8,20,15.6,0,5.9-1.5,7.7-7.2,8.2-14.9,1.4-43.6,1.2-58.6,0s-7.5-.8-8.1-6.3c-1.8-16.5,18.3-6,20.1-17.3v-103.6c1-15.2-21.1-3.7-20.7-18.1.2-6.7,3.7-7.8,9.7-8.3,14.2-1.2,41.7-1.3,55.7,0,5.9.6,9.1,1.8,9.2,8.2.2,14.8-17.8,4.4-20,14.6-.8,3.8-.9,30.3-.2,34.3s2.3,3.9,4.3,4.3l51.8-1.9c4.7-1.7,10.3,1,11.1-5.2s.4-30.6-1.5-34.1-12.7-1.3-16.5-5.1Z"/>
  <path class="cls-1" d="M230.9,1188.7c-.7,3.1-1.7,5.9-2,9.1-.7,8.6-.9,28,.5,36.1s5.9,6.4,13.1,8.1c9.4,2.1,10.6,15.9-.5,16.9-15.1,1.4-44.4,1.3-59.6,0-10.1-.8-8.8-13.8-1.9-16.4s13.2.6,14.7-6.4.2-14.1.2-20.9c0-23.1,0-46.1,0-69.2s1.4-11.2-.2-18c-2.4-10.2-21.4-.1-20-15.6s3.4-6.8,8.2-7.2c18.6-1.7,39.7,1.4,58.6,0,10.3,1.2,11,14.5.5,16.9s-12.2-1.7-13.4,9.7c-.6,6.2-.9,30.4,1.1,35.2s9.8,2.6,13.6,2.6c14.1,0,35,1.8,48.1,0s4.9-4.1,5.3-8.2c.7-8,.5-26.7-1.2-34.4s-17.6-1.3-19.8-11,2.1-10.2,8.9-10.9c14-1.3,42.7-1.3,56.7,0s10.5,3.5,8.9,10.9-18.4,2.6-19.9,11.8v106.5c-.8,8.4,8.2,6.3,13.4,7.6,8,1.9,10.1,15.9-1.5,16.9s-46.2,1.5-59.6,0c-5.1-.6-7.6-3.9-7.1-9,1.2-13,18-4.3,19.9-12.8s2.2-33.6,1.2-43-1-5.3-3.4-5.3h-62.9Z"/>
  <path class="cls-1" d="M658.7,1107.4c2.7,2.7,3,8.7.3,11.8-4.7,5.3-16,1.2-17.8,7.1s-1.3,8.6-1.4,11.1c-.3,5.3-.4,13,0,18.3s.4,13.2,6.8,7.7l39.8-37c3.3-6.4-7.2-3.3-8.7-8.5s.4-12,7.7-12.6c10.7-1,34.7-1.1,45.2,0s10.6,15.1-.2,17.1c-7.5,1.4-10.3-.7-17.4,4.6-12.5,9.3-31.3,26.7-42.8,37.8-3.6,3.4-8.5,6.6-5.3,12.1s13,12,16.9,15.8c10.4,10.2,42.6,45.4,54.2,48.5s10,0,13.6,2.8c4,3.2,4,11.3-.7,13.9l-70.4.6c-4.9-3.1-5.4-11.7-.5-14.9s8.2,0,5.7-5.7l-40.3-40.4c-1.2-.3-1.8.7-2.2,1.6-1.9,4.2-1.7,29.6-.9,35.1,1.4,9.4,6.4,5.9,12.8,8.3s7.9,15.5-2.9,16.4-42.3,1.2-56.7,0c-10.4-.9-9.2-14.9-.5-16.9s11.9,1.2,13.5-6.7v-104.6c.4-13.3-19.1-3.4-20.1-15.3s1.9-9.5,8.2-10.1c13.8-1.3,45.1-1.5,58.6,0s4.9,1.2,5.9,2.2Z"/>
  <path class="cls-1" d="M13.3,1256.6c-2.4-2.6-2.1-7.9-.3-10.8,4.5-7.2,18.2-.7,19.1-11.6-1.5-32.6,2.3-67.4.1-99.8-1-14.9-3.8-9.8-14.5-12.4s-9.2-15.7,1.5-16.9c17.5-1.9,42.1,0,60.5,0s20.7-1.4,33.1,2.4c26.9,8.2,34.9,37.3,24.2,61.6-9.7,21.8-36.7,27.9-58.3,30.1-12.5,1.3-12.5-3.1-13.8,12.9,2.7,6.7-1.8,22.6,3.2,27.5s19.7-2.8,20.6,11.1-3.2,7.6-8.1,8.1c-14.4,1.3-47.3,1.6-61.5,0s-5.1-1.2-6-2.2ZM65.8,1124.9v54.7c0,5.1,18.4,1,21.8-.3,15.2-5.8,19.7-20.1,18.6-35.3-1.1-15.1-9-20.4-23.5-21.6s-15.9-1-16.8,2.4Z"/>
  <path class="cls-1" d="M488.4,1244.6c3.7-3.9,14-.4,14.1-6.6s-8.5-21.4-11.7-22.7-2.5-.6-4-.8c-12.2-1.1-41-1.4-52.9,0s-11.4,11.4-13.8,17c-6.9,16.4,7.4,6.9,10.7,14s.8,12.6-6.4,13.3c-8.3.8-31.5,1.1-39.3-.1s-7.4-7.5-5.1-12.6,16.2-2.3,18.7-12l59.5-124.8c4.9-8.5,16.7-8.5,20.7.8l58.4,122.1c1.8,2.2,3,5.6,5.2,7.3,6.1,4.6,14.6.2,15.3,10.7s-1.2,7.9-5.8,8.6c-18.4-1.5-40.5,2.2-58.5,0s-8.4-10.6-5-14.2ZM460,1152.3c-1.3.4-2,2-2.7,3.1-3.2,4.8-15.2,29.1-16.7,34.2s-1,3.4.5,4.4c2.7,1.9,16.6-.4,20.6-.6s16.7,1.4,18.3-1.9-15.7-32.3-17-37.8c-.7-1.4-1.6-1.9-3.1-1.5Z"/>
  <path class="cls-1" d="M872.7,1105.5l61.2,127.4c3,8.7,9.6,7.4,15.9,10.1s6.1,11.7.7,15.1c-20.8,1.4-42.2.8-63.2.3-5.9-3.2-6.1-13.2.8-15.6s13.2,1.3,10-8.7c-.8-2.4-8.2-16.8-9.8-18s-3.1-1.3-5.2-1.5c-13-1.2-39-1.2-51.9,0s-12.1,10.5-14.7,17c-4.8,11.8-1.6,8.4,6.8,11.2s7.4,15.2-2.5,16c-9.1.8-29.6,1-38.5,0-2.7-.3-5.6-1.3-6.2-4.4-3.3-17,10.3-9.4,16.3-16.3,1.1-1.2,2.8-4.4,3.7-5.9,21.9-39.6,37.9-84.6,59.8-124.4,3.5-5.6,11.7-5.7,16.8-2.3ZM835.7,1195.3c1.2,1.7,40.5,1.9,41.7.2s.3-3.9-.3-5.6c-2.3-6.4-13.6-29.8-17.3-35.5-.8-1.2-1.4-2.3-2.6-3.2-3.1,2.3-4.4,5.9-6.1,9.2-4.1,8-12,22.5-14.7,30.4s-1.3,3.4-.7,4.4Z"/>
  <path class="cls-1" d="M1131.9,1107.4c2,2.1,1.8,28.7,0,31.7s-14.8,3.4-18,1.1c-6.8-4.9,2.3-14.5-9.6-16.3-5.1-.8-21.7-1.3-26.4-.4s-2.6,1.7-3.1,3.6v107.2c.8,13.2,24.3,1.5,23.7,16.3s-6.5,8.7-13.1,8.8c-19.9.5-40.3-1.7-60.3-.6-7.6-.3-9.7-9.7-4.8-14.5s18.6,1.1,20.6-9.1l-.4-109c-.3-.9-.4-1.4-1.2-1.8-3-1.6-28.8-1.5-32.1,0-5.5,2.5,1.8,16-8.9,17.3s-14.9,1.6-15.9-7.2c-.4-3.9-.4-23.7.9-26s4.8-3.6,7.2-3.3c43.3,3,91.8-3.9,134.5,0,1.9.2,5.6.9,6.9,2.2Z"/>
  <path class="cls-1" d="M1377.2,1243.7c4.5-4.2,16.5.9,17.9-8.5v-104.6c.3-13.4-18.9-3.3-20.1-15.3-.8-8.1,1.8-9.6,9.1-10.1,15.4-1.1,42.5-1.4,57.7,0,7.5.7,10.4,7.1,6.6,13.4s-17.6-2.5-19.5,13.1c-3.7,30.9,2.5,68.2-.1,99.8-1,15.5,20.5,5,21.1,18.3s-4.7,9.4-11.1,9.6c-18.9.5-38.3-1.6-57.4-.6-7.2-.4-8.2-11.3-4.1-15.1Z"/>
  <path class="cls-1" d="M673.1,1364.6c8.7-1.6,33.7-.7,42.7,1,37.6,7.1,39.6,57.9,6.2,71-11.4,4.5-35.1,6-47.2,4.6-4.3-.5-6.9-2.9-7.2-7.2,1.8-20-2.3-43.8,0-63.4.5-4,1.6-5.3,5.5-6ZM683.9,1379.2v47c0,3.2,16.9,2.6,19.7,2.4,16-1.5,24.6-11.2,24.6-27.3s-12.1-24.5-28.3-25.5c-4-.2-15-1.2-15.9,3.4Z"/>
  <path class="cls-1" d="M499.4,1362.7c18.2-2.1,37.7,2.8,46.8,19.9,18.7,35-16.2,70-51.3,59-44.3-13.9-39.8-73.8,4.5-78.9ZM503.3,1374.2c-28.4,3.4-29.3,48.6-3.8,55.1,24.5,6.2,36.4-10.9,33.7-33.7s-15.1-23.2-29.9-21.4Z"/>
  <path class="cls-1" d="M888.4,1371.6c1.2-7.8,10.7-10.4,13.7-4.1s.7,11.5.7,17.5c-.1,14.3,2,36.9,0,49.9-1,6.2-7.9,7.7-13.1,5.6-3.3-1.4-24-27.4-28.1-32.4-2.9-3.6-9.7-15.8-13.9-15.8-1.3,1.2-1.4,3.6-1.5,5.3-.7,10.9,2,28.7-.2,38.2s-11,7.6-13.7.7c-2.7-6.7-.5-11.6-.4-17.7,0-11.2.1-22.5,0-33.7,0-8.5-4.6-21.2,9.1-20.6,6,.3,8.2,3.2,12,7.3,9.9,10.9,18.8,24.8,28.3,36,.7.8,7.2,8.1,7.2,4.3,1.3-12.4-1.8-28.4,0-40.3Z"/>
  <path class="cls-1" d="M414,1407.8c-1-.9-8.9-2.1-10.8-2.2-2.7-.1-22.5,1-23.6,1.5-7.7,3.7,5.1,31.9-9.2,34-8.1,1.2-9.5-4.1-10-11-1.2-14.4-1.3-42.4,0-56.7s2.4-9.4,9.2-9.2c15.7.5,2.5,25.7,10.1,29.4,1.9.9,31.8.9,33.6,0,6.5-3.2-6.2-32.3,12.9-29.2s5.3,12.2,5.3,17.7c0,12.8,0,25.7,0,38.5s3.5,19.3-6.3,20.6-9.6-5.6-10-12.9,1.1-18.2-1.1-20.5Z"/>
  <path class="cls-1" d="M971.7,1362.7c8.4-.9,26-.7,33.8,2.1s7.8,9.1,3.2,11.9-16.9-2.4-22.9-2.8c-18.7-1.2-31.9,6.9-33,26.5-1,17.3,9.4,28.3,26.4,30s13.9-4,15.8-17.6c1.4-9.7,13.1-9.2,15.7-3.4s.9,20.5.4,23.4c-.9,5.5-5.7,6.7-10.3,7.9-27.1,7.4-62.9-1.1-65.4-33.9-1.8-24,11.9-41.6,36.2-44.2Z"/>
  <path class="cls-1" d="M1061.4,1377.1c-4.7,4.8-.5,9.5,3.9,12.4,12.1,8,32.8,10.7,35,28.4s-12.2,22.5-23.5,25c-8.3,1.8-38.5.6-33.7-13.5,2-5.8,21.8,1.7,28,1.2,7.1-.5,14.9-5,11.4-13.1-2.4-5.4-24-13.1-30.5-18.5-19.3-16-4.8-34.8,16.3-36.5,6.3-.5,24.6-.6,26.3,7.5,3,14.6-24.8-1.2-33.2,7.2Z"/>
  <path class="cls-1" d="M588.6,1364.6c4.1-.9,9.5-.4,10.6,4.3,1.5,16.7-1.3,35.2.2,51.7s.7,7.6,5.3,8.2c8.4,1.1,22.9-1.9,30.3.4,8.3,2.5,5.4,11.2-4.3,12.1-9.8.9-29.6.9-39.4,0-6.5-.6-7.6-3.9-8.2-10.1-1.7-19.3,1.4-41,0-60.6,0-2.7,3-5.4,5.5-6Z"/>
  <path class="cls-1" d="M782.5,1364.6c6.9-1.6,11,1,11.8,7.9,1.4,12,1.5,47.7,0,59.4-1.8,13.5-17,12.4-17.3-2.8-.2-14.5,1.3-29.5,1.1-44.2,0-5.6-3.9-18.5,4.5-20.4Z"/>
</svg>