<?xml version="1.0" encoding="UTF-8"?>
<svg id="Layer_1" data-name="Layer 1" xmlns="http://www.w3.org/2000/svg" viewBox="0 0 377.21 372.51">
  <defs>
    <style>
      .cls-1 {
        fill: #e7e7e9;
      }

      .cls-2 {
        fill: #e6e6e8;
      }
    </style>
  </defs>
  <g>
    <path class="cls-1" d="M266.96,1.92c-.53-.65-.48-1.57.41-1.8l106.63-.12c1.99.14,2.65.22,2.85,2.35,1.08,11.74-.62,25.49-.27,37.39.2,63.09-.43,126.12-.22,189.21-1.06,6.91.54,14.98-.25,21.79-.18,1.52-1.18,1.86-2.6,1.86h-144.39c-1.85-.17-2.43-.75-2.6-2.6-.29-3.07-.33-10.12,0-13.13.23-2.05,1.25-2.23,3.08-2.36,19.22-.24,38.54.46,57.71-.23,17.94-.65,52.8-1.77,56.51-24.71.54-55.36.53-110.9,0-166.27-3.98-24.68-33.3-24.83-52.88-25.12l-23.99-16.25Z"/>
    <g>
      <path class="cls-1" d="M219.53,234.58c.24.22.52,1.17.56,1.54.34,3.07.35,11.32,0,14.37-.13,1.13-.52,1.42-1.64,1.58l-117.37.04c-1.44-.02-1.98-.75-2.1-2.1-.29-3.22-.29-9.68,0-12.9.26-2.9,2.19-2.09,4.35-2.34,7.24-.85,18.71-1.4,23.78-7.18,5.38-6.13,4.75-18.24,4.81-25.87.45-54.56-.32-109.14.02-163.71-.66-5.42-.59-12.11-5.21-15.84-5.21-4.2-17.33-3.21-23.88-4.1-1.62-.22-2.01-.75-2.14-2.32-.22-2.65-.38-12.01.13-14.26.25-1.08.73-1.16,1.72-1.24,6.37-.55,13.2.18,19.56.27,19.57.28,39.15.53,58.69.74,34.84.38,79.61-3.77,104.52,25.74,17.03,20.18,18.9,52.02,9.72,76.09-13.24,34.71-52.01,53.3-87.98,50.46-7.18-.57-15.91-4.78-23.09-5.64-.8-.1-1.38-.25-1.69.68l.14,66.01c.58,4.78,1.1,10.73,4.96,14.11,4.24,3.71,14.62,4.35,20.19,4.82,1.94.17,11.03.22,11.95,1.06ZM182.51,126.24c.34.36,4.38,1.62,5.19,1.86,18.64,5.56,42,2.72,55.54-12.2,15.78-17.39,18-51.69,7.18-72.07-10.68-20.11-34.41-26.84-55.94-24.23-10.46,1.27-12.18,6.57-12.55,16.18-1.13,29.21.87,59.14,0,88.42.04.51.25,1.69.57,2.03Z"/>
      <path class="cls-1" d="M1.59.31l88.86-.07c.9-.04,1.64.4,1.98,1.24-.12,4.63.54,9.95.12,14.51-.06.61-.04,1.01-.52,1.46-1.1,1.04-6.73.95-8.53,1.13-22.19,2.19-49.64,3.98-51.15,32.3v150.58c1.67,33.38,31.98,30.18,56.59,32.8,1.72.18,2.64.52,2.85,2.35.33,2.95.33,10.66,0,13.62-.12,1.04-.46,1.86-1.53,2.19-28.89.39-57.85.04-86.77.17-.95-.09-2.1-.19-2.54-1.18-.16-15.09.03-30.18-.04-45.27C.65,143.49.66,80.66.17,17.97c-.04-4.75-.36-10.49,0-15.13C.26,1.71.31.67,1.59.31Z"/>
    </g>
  </g>
  <path class="cls-1" d="M315.24,300.82c.77.77,4.37.09,5.5.05,3.14-.11,6.85.07,9.91-.24,2.42-.25,1.59-1.47,1.6-3.08s.29-5.62-.1-6.83c-.67-2.07-5.22.07-5.08-3.55.06-1.63,1.24-1.79,2.57-1.89,3.75-.29,10.67-.34,14.39,0,1.18.11,2.05.58,2.11,1.87.18,3.87-4.77.99-5.2,4.22.57,8.59-.81,18.27-.03,26.74.39,4.16,5.21.82,5.21,4.7,0,1.75-1.12,1.99-2.59,2.11-3.66.3-9.96.27-13.64,0-1.63-.12-2.91-.37-2.82-2.34.15-3.28,4.72-.88,5.17-3.75.52-3.35-.36-7.89.01-11.38-.14-.79-.94-.82-1.6-.88-3.62-.32-10.5-.3-14.14,0-1.38.11-1.49.24-1.61,1.61-.16,1.97-.31,9.2.06,10.85.56,2.5,5.01.38,5.16,3.52.09,1.95-1.22,2.22-2.85,2.36-3.51.3-9.61.26-13.14,0-1.57-.11-3.11-.22-3.11-2.12,0-3.48,4.76-1.13,5.21-3.98.08-7.51-.05-15.02,0-22.53.01-1.36.68-5.17-.49-6.17-1.31-1.13-4.53.18-4.71-2.49-.12-1.75.81-2.21,2.36-2.36,3.54-.33,10.84-.33,14.38,0,1.37.13,2.4.49,2.35,2.1-.09,3.43-4.42,1.23-5.1,3.34-.32,1-.24,7.43-.12,8.82.03.38.04,1.02.32,1.29Z"/>
  <path class="cls-1" d="M59.67,290.05c-.33.3-.53,1.3-.57,1.78-.19,2.06-.22,6.67,0,8.68.27,2.37,2.77,1.36,4.33,1.35,3.14-.02,6.29.02,9.43,0,1.03,0,3.47.63,3.77-.9.33-1.7.21-6.98.03-8.84-.34-3.49-1.62-2.05-3.95-2.74-1.84-.55-2.06-3.81.63-4.11,3.44-.38,11.38-.32,14.88,0,1.22.11,1.98.32,2.09,1.62.33,3.88-3.43,1.93-4.65,3.15-.31.31-.53,2.22-.56,2.78-.54,8.27.4,17.15.04,25.49.05,3.76,5.28.59,5.2,4.49-.04,1.76-1.08,1.98-2.61,2.11-3.47.29-9.92.3-13.39,0-1.9-.16-3.09-.43-2.84-2.61.36-3.19,4.61-.23,5.14-3.78.49-3.31-.22-7.42.06-10.82-.25-.89-.76-1.06-1.59-1.14-3.24-.31-11.2-.36-14.38,0-.61.07-1.11.24-1.48.75l-.02,11.66c.54,2.5,4.46.52,5.04,3.13.49,2.21-.93,2.65-2.79,2.8-3.45.29-10.21.32-13.64,0-1.92-.18-2.63-.85-2.35-2.87.32-2.39,3.82-.86,4.73-2.45.24-.42.45-2.33.49-2.98.44-6.67.49-17.15,0-23.79-.06-.75-.19-2.21-.76-2.71-1.34-1.17-4.4.28-4.65-2.54-.15-1.71.8-2.17,2.29-2.31,2.57-.24,13.11-.39,15.26.12,1.33.31,1.66,1.19,1.45,2.48-.39,2.46-3.57,1.22-4.63,2.18Z"/>
  <path class="cls-1" d="M170,285.84c.68.74.62,2.15-.05,2.92-1.12,1.32-3.89.32-4.47,1.71s-.53,7.13-.38,8.81c.14,1.56.44,1.99,1.75.98,2.38-1.83,5.71-5.03,7.92-7.18.49-.48,3.09-2.76,2.61-3.36-.39-.49-1.98-.1-2.45-1.51-.55-1.64.26-2.8,1.93-2.94,2.29-.2,10.31-.32,12.28.13,1.25.29,1.39,1.31,1.24,2.49-.27,2.16-3.28,1.45-4.78,1.91-4.43,3.51-9.88,7.61-13.82,11.69-.31.33-.72.77-.72,1.25,0,.82,3.96,4.5,4.81,5.33,2.43,2.38,10.99,11.2,13.43,12.08,1.62.58,4.85.03,4.77,2.63-.05,1.66-1.45,2.02-2.83,2.14-3.81.32-10.82.32-14.63,0-1.84-.15-3.18-1.13-2.36-3.12.58-1.42,2.93-.96,2.31-2.26l-10.08-10.24c-.44-.27-.94-.51-1.2.07-.31.7-.31,8.35-.12,9.42.5,2.75,4.67.79,4.66,4.02,0,1.74-1.41,2-2.85,2.11-3.47.28-9.68.29-13.14,0-1.55-.13-2.44-.4-2.46-2.11-.03-3.7,4.06-1.09,5.06-3.72l-.1-28.36c-.65-2.01-4.87-.13-5.08-3.11-.11-1.52.67-2.21,2.08-2.33,3.56-.32,11.63-.38,15.12,0,.38.04,1.31.31,1.54.56Z"/>
  <path class="cls-1" d="M17.33,319.89c1.1,1.19,4.98-.21,5.37,2.18.36,2.2-.59,2.67-2.57,2.84-3.6.31-10.8.34-14.37-.01-1.79-.18-3.01-.73-2.55-2.79.41-1.83,2.79-1.38,4.05-1.89,1.94-.78,1.09-4.95,1.08-6.57-.04-7.51.07-15.02,0-22.53-.42-2.64-4.72-.43-5.17-3.25-.3-1.89.6-2.43,2.33-2.59,4.89-.46,12-.24,17.09-.25,9.18-.03,15.83,4.81,13.43,14.68-1.66,6.83-8.74,8.92-14.91,9.6-1.99.22-4.05-.87-4.33,1.86-.13,1.29-.12,7.99.56,8.73ZM17.94,289.54c-.83.19-1.08.76-1.17,1.55-.27,2.26-.33,10.49.02,12.62.44,2.7,5.76.96,7.34-.06,3.44-2.22,4.14-7.02,2.92-10.69-.43-1.29-1.12-2.05-2.35-2.61-1.42-.65-5.26-1.16-6.76-.81Z"/>
  <path class="cls-1" d="M120.47,284.84c1.3-.21,2.18.07,2.84,1.26,5.38,9.95,9.4,21.17,14.77,31.05.43.79,1.45,2.6,2.18,3.02,1.27.72,3.24.07,3.54,1.9.39,2.39-.77,2.7-2.82,2.84-3.43.25-9.25.28-12.65,0-1.93-.16-3.5-1.22-2.32-3.32.97-1.74,3.89,0,3.7-2.5-.06-.74-2.24-5.13-2.79-5.39-.36-.17-.67-.16-1.04-.19-4.68-.43-10.07.3-14.82.06-.66.19-2.78,4.15-2.98,4.95-.83,3.3,2.03,1.32,3.02,3.08,1.18,2.1-.38,3.16-2.32,3.32-1.64.14-8.66.2-9.85-.32-1.41-.63-1.33-3.17.05-3.77,1.55-.67,2.42.04,3.68-1.77l15.84-32.94c.32-.72,1.22-1.13,1.97-1.25ZM123.97,307.78c.16-.26,0-.89-.09-1.21-.41-1.44-3.1-6.65-3.95-8.18-.67-1.2-1.07-1.7-1.92-.41-.94,1.45-3.71,7.07-4.22,8.66-.14.43-.38,1.02-.09,1.44.46.65,4.74.02,5.7-.03.77-.04,4.26.2,4.56-.27Z"/>
  <path class="cls-1" d="M222.49,284.84c1.67-.34,2.46.18,3.29,1.54l15.3,31.99c1.05,3.34,5.81.89,4.99,5.15-.22,1.13-1.64,1.3-2.58,1.38-3.3.28-9.35.28-12.65,0-1.16-.1-2.6-.25-2.82-1.63-.6-3.76,4.09-1.84,4.18-3.69.03-.53-2.38-5.53-2.82-5.85-.28-.2-.43-.2-.75-.24-3.36-.46-9.02,0-12.65.02-.92,0-1.58-.39-2.65.06-.87.36-3.34,5.09-3.36,6.05-.03,1.64,3.91.14,3.68,3.41-.1,1.48-1.34,1.73-2.62,1.86-2.08.21-6.08.19-8.18.01-1.87-.16-2.83-.52-2.6-2.61.29-2.61,3.79-.99,4.76-3.41l15.99-33.04c.24-.48.96-.9,1.47-1ZM220.99,297.19c-.35.09-.53.52-.71.79-.81,1.22-4.02,7.78-4.46,9.15-.14.43-.38,1.02-.09,1.44.34.48,9.25.21,10.54.11l.45-.69-4.93-10.42c-.17-.35-.41-.48-.8-.38Z"/>
  <path class="cls-1" d="M277.6,290.05c-.27.23-.29.93-.32,1.29-.64,8.87.49,18.53.03,27.48.35,2.81,5.19.72,5.88,3.04.64,2.16-.68,2.9-2.54,3.05-3.92.33-11.2.33-15.12,0-1.6-.14-3.06-.65-2.79-2.54.49-3.37,5.91-.1,6.08-4.34.27-6.97-.28-14.63-.19-21.74.01-1.23.34-2.35.27-3.71-.04-.65-.19-2.27-.68-2.54-.97-.53-6.86-.36-8.07,0-1.46.44-.49,3.14-1.42,4.03-.84.8-3.81.84-4.64.06-.76-.7-.68-5.31-.57-6.51.17-1.79.56-2.19,2.35-2.35l34.91.02c1.01.18,1.51.84,1.63,1.84.13,1.09.14,6.12-.39,6.8-.82,1.08-4.48,1.12-5-.42-.36-1.05.09-3.03-1.24-3.47-1.08-.36-7.52-.57-8.17,0Z"/>
  <path class="cls-1" d="M373.56,288.93c-1.12,1.24-4.42-.52-4.87,2.68.55,8.51-.81,18.1-.03,26.48.38,4.13,4.93,1.01,5.22,4.2.17,1.88-.62,2.45-2.35,2.61-3.54.33-10.31.29-13.89,0-1.51-.12-2.77-.34-2.86-2.12-.15-3.13,3.78-1.68,4.87-3.07.75-.96.33-2.98.34-4.09.05-6.53-.07-13.06,0-19.58.02-1.75.64-3.46-.11-5.32-.83-2.06-4.89-.17-5.1-3.09-.11-1.56.66-2.18,2.12-2.35,3.02-.34,12.4-.4,15.33.02,1.8.26,2.3,2.56,1.32,3.63Z"/>
  <path class="cls-1" d="M129.56,351.79c8.11-.8,14.09,4.74,12.19,13.03-1.32,5.77-8.37,8.68-13.73,7.2-11.66-3.23-10.77-19.01,1.54-20.23ZM129.64,354.68c-7.84,1.15-7.46,15.59,2.39,14.52,4.88-.53,6.03-4.72,5.57-8.98s-4.03-6.11-7.95-5.54Z"/>
  <path class="cls-1" d="M172.85,371.39c-.25-.24-.52-1.16-.57-1.54-.4-3.61-.34-11.95,0-15.62.15-1.64.76-1.96,2.35-2.1,7.04-.65,17.97.02,17.73,9.55-.25,9.95-10.54,10.69-18.23,10.04-.41-.03-.98-.03-1.29-.32ZM176.56,368.42c6.42,1.58,12.32-.55,11.31-8.21-.59-4.5-5.73-5.53-9.52-5.35-2.3.1-2.01,1.38-2.11,3.34-.06,1.25-.08,9.77.32,10.22Z"/>
  <path class="cls-1" d="M218.35,369.6c-.26,2.71-3.27,3.02-3.66.44-.49-3.27-.38-12.36-.07-15.8.24-2.71,2.9-2.44,4.59-1.1,2.9,3.24,5.44,7.33,8.31,10.51.5.56,1,1.1,1.72,1.37.6-.6.03-9.77.27-11.5.26-1.82,3.1-1.83,3.43.25-.33,5.1.48,10.82.03,15.85-.23,2.52-2.2,2.72-4.06,1.56-3.11-3.24-5.69-7.63-8.7-10.86-.2-.21-1.86-1.87-1.86-.86,0,3.16.29,7.1,0,10.15Z"/>
  <path class="cls-1" d="M96.7,371.39c-.89.84-3.05.47-3.34-1.11-.86-4.65.53-11.42-.08-16.3,0-1.71,1.88-2.23,3.22-1.46,1.8,1.04-.29,6.62,1.5,7.41.62.27,7.98.23,8.6-.05,2.09-.96-1.03-7.35,2.47-7.69,1.71-.17,2.17.82,2.31,2.29.34,3.74.35,11.38,0,15.13-.17,1.81-1.45,2.7-3.17,1.91-1.82-.83.1-7.29-1.45-8.47-.46-.35-6.93-.38-7.9-.26-.56.07-1.38.32-1.56.92-.5,1.67.62,6.54-.61,7.69Z"/>
  <path class="cls-1" d="M252.23,351.72c1.74-.12,5.74.1,7.3.72.78.31,1.15.68,1.18,1.57.1,2.71-4.07.79-5.62.64-5.81-.56-9.63,1.79-9.26,8.03.3,5.15,4.79,7.32,9.53,6.54,2.88-.47-.07-5.74,3.04-6.38s2.77,4.3,2.54,6.27c-.3,2.64-4.05,3.18-6.31,3.35-16.25,1.21-18.21-19.68-2.41-20.74Z"/>
  <path class="cls-1" d="M278.95,368.41c3.38-3.12-5.17-5.84-6.84-7-3.18-2.22-4.07-5.74-.64-8.27,2.16-1.6,6.87-1.81,9.34-.93,1.26.45,2.2,2.17.93,2.78-1.61.78-6.01-1.67-7.93.49-2.47,2.76,5.02,5.02,6.77,6.12,6.26,3.95,2.56,9.96-3.48,10.78-1.88.26-7.2-.03-7.83-2.21-.93-3.23,3.94-1.04,5.4-.93,1.25.09,3.3.07,4.27-.83Z"/>
  <path class="cls-1" d="M164.55,371.4c-.27.27-.91.28-1.29.32-2.53.21-8.76.32-11.17,0-1.1-.15-1.27-.84-1.36-1.86-.36-4.01-.34-11.84,0-15.87.22-2.56,3.45-2.35,3.91-.18l.18,14.43c.54,1.14,4.94.74,6.2.75.95,0,1.81-.35,2.9.05.93.34,1.29,1.69.62,2.36Z"/>
  <path class="cls-2" d="M204.17,371.39c-1.13,1.06-3.2.19-3.41-1.54-.59-4.94.44-11.02.02-16.09.35-2.23,3.84-2.09,3.95.23-.42,5.04.55,10.93,0,15.86-.04.38-.31,1.3-.57,1.54Z"/>
</svg>